<svg xmlns="http://www.w3.org/2000/svg" width="64" height="64" viewBox="0 0 64 64" fill="none">
	<defs>
		<linearGradient id="stackmind-bg" x1="10" y1="8" x2="54" y2="56" gradientUnits="userSpaceOnUse">
			<stop stop-color="#38BDF8"/>
			<stop offset="1" stop-color="#6366F1"/>
		</linearGradient>
		<linearGradient id="stackmind-line" x1="18" y1="20" x2="46" y2="44" gradientUnits="userSpaceOnUse">
			<stop stop-color="#FFFFFF"/>
			<stop offset="1" stop-color="#DCEBFF"/>
		</linearGradient>
	</defs>
	<rect x="4" y="4" width="56" height="56" rx="16" fill="url(#stackmind-bg)"/>
	<path d="M18 22.5C18 18.91 20.91 16 24.5 16H39.5C43.09 16 46 18.91 46 22.5V23.5H38.75V23C38.75 21.76 37.74 20.75 36.5 20.75H27.5C26.26 20.75 25.25 21.76 25.25 23V24.5C25.25 25.74 26.26 26.75 27.5 26.75H39.5C43.09 26.75 46 29.66 46 33.25V41.5C46 45.09 43.09 48 39.5 48H24.5C20.91 48 18 45.09 18 41.5V40.5H25.25V41C25.25 42.24 26.26 43.25 27.5 43.25H36.5C37.74 43.25 38.75 42.24 38.75 41V39.5C38.75 38.26 37.74 37.25 36.5 37.25H24.5C20.91 37.25 18 34.34 18 30.75V22.5Z" fill="url(#stackmind-line)"/>
</svg>